<svg xmlns="http://www.w3.org/2000/svg" version="1.1" xmlns:xlink="http://www.w3.org/1999/xlink" xmlns:svgjs="http://svgjs.dev/svgjs" viewBox="0 0 1422 800"><defs><linearGradient x1="50%" y1="0%" x2="50%" y2="100%" id="ccchaos-grad"><stop stop-color="hsl(206, 75%, 49%)" stop-opacity="1" offset="0%"></stop><stop stop-color="hsl(331, 90%, 56%)" stop-opacity="1" offset="100%"></stop></linearGradient></defs><g stroke-width="2" stroke="url(#ccchaos-grad)" fill="none" stroke-linecap="round"><path d="M698.14 126.55C707.71 124.51 717.38 122.37 727.14 120.3 736.92 117.93 746.82 115.98 756.83 114.61 766.9 113.49 777.11 113.27 787.46 114.04 797.89 115.42 808.49 117.91 819.22 121.49 830.05 125.76 841 131.05 852.03 137.25 863.1 143.96 874.18 151.37 885.18 159.34 896.07 167.51 906.73 176.02 917.01 184.75 926.96 193.37 936.32 202.06 944.93 210.72 952.9 219.1 959.9 227.39 965.74 235.59 970.74 243.43 974.44 251.19 976.78 258.89 978.24 266.28 978.39 273.67 977.29 281.11 975.63 288.32 973.03 295.65 969.71 303.15 966.48 310.5 963.06 318.09 959.74 325.95 957.34 333.72 955.6 341.81 954.76 350.24 955.46 358.63 957.35 367.39 960.49 376.53 965.23 385.66 971.03 395.19 977.65 405.14 985.2 415.09 992.72 425.24 999.81 435.55 1006.68 445.88 1012.39 456.38 1016.64 467.02 1019.78 477.66 1021.07 488.43 1020.45 499.27 1018.38 510.07 1014.42 520.88 1008.74 531.62 1001.86 542.22 993.59 552.64 984.22 562.74 974.21 572.55 963.56 581.88 952.51 590.58 941.44 598.78 930.35 606.17 919.41 612.59 908.88 618.34 898.69 622.99 888.91 626.48 879.7 629.28 870.92 630.95 862.53 631.53 854.69 631.69 847.14 631.05 839.81 629.8 832.89 628.74 826.04 627.57 819.2 626.58 812.6 626.57 805.86 627.28 798.94 628.97 792.12 632.22 785.02 636.73 777.6 642.54 770.21 649.89 762.46 658.3 754.34 667.46 746.2 677.35 737.68 687.21 728.77 696.53 719.86 705.18 710.57 712.3 700.94 717.41 691.3 720.61 681.57 721.2 671.79 719.21 662.03 715.23 652.26 709.02 642.52 700.99 632.83 691.86 623.22 681.72 613.73 671.05 604.34 660.54 595.11 650.28 586.11 640.62 577.24 632.05 568.64 624.47 560.36 617.95 552.26 612.82 544.51 608.69 537.19 605.43 530.04 603.28 523.33 601.64 517.09 600.27 508.22 599.01 492.96 595.12 486.5 591.58 482.34 588.71 478.53 584.96 475.04 580.34 471.44 575.34 468.07 569.48 464.93 562.85 461.55 555.87 458.33 548.2 455.25 539.96 451.87 531.47 448.6 522.52 445.49 513.2 442.08 503.74 438.85 494.02 435.85 484.11 432.66 474.14 429.78 464.05 427.29 453.89 424.78 443.73 422.78 433.51 421.36 423.3 420.11 413.08 419.59 403.09 419.79 393.34 420.29 383.56 421.57 373.99 423.59 364.62 425.93 355.18 428.99 345.89 432.72 336.73 436.7 327.46 441.28 318.26 446.37 309.11 451.58 299.81 457.22 290.51 463.21 281.19 469.15 271.7 475.35 262.17 481.76 252.62 487.99 242.92 494.36 233.23 500.84 223.59 507.08 213.91 513.4 204.39 519.81 195.11 525.95 185.98 532.21 177.25 538.57 169.04 544.71 161.21 551 154.08 557.47 147.76 563.78 142.01 570.3 137.19 577.07 133.35 583.72 130.12 590.66 127.86 597.87 126.54 605.03 125.64 612.49 125.49 620.26 125.98 628 126.47 636.05 127.29 644.41 128.3 652.75 128.82 661.4 129.22 670.36 129.41 679.31 128.79 688.57 127.83 698.14 126.55" stroke-dasharray="1 1" transform="rotate(0, 711, 400)"></path><path d="M702.99 137.91C712.3 135.9 721.73 133.81 731.28 131.77 740.84 129.42 750.55 127.46 760.37 126.02 770.23 124.78 780.24 124.37 790.37 124.86 800.57 125.9 810.89 127.99 821.31 131.11 831.78 134.89 842.32 139.66 852.86 145.32 863.38 151.51 873.82 158.44 884.08 165.97 894.18 173.76 903.97 181.97 913.29 190.45 922.24 198.93 930.54 207.53 938.05 216.18 944.95 224.63 950.88 233.05 955.69 241.4 959.75 249.47 962.61 257.46 964.23 265.4 965.13 273.04 964.87 280.68 963.54 288.33 961.81 295.74 959.32 303.24 956.26 310.86 953.4 318.32 950.45 325.96 947.66 333.82 945.79 341.58 944.54 349.61 944.14 357.93 945.16 366.2 947.26 374.79 950.45 383.73 955.09 392.65 960.66 401.93 966.95 411.59 974.08 421.25 981.18 431.06 987.87 441.01 994.41 450.96 999.91 461.04 1004.1 471.19 1007.34 481.34 1008.9 491.55 1008.72 501.74 1007.25 511.87 1004.02 521.92 999.18 531.8 993.19 541.52 985.84 550.96 977.38 559.99 968.24 568.72 958.36 576.9 947.99 584.4 937.47 591.42 926.79 597.62 916.14 602.88 905.74 607.56 895.55 611.24 885.67 613.86 876.24 615.96 867.16 617.1 858.44 617.34 850.18 617.37 842.21 616.8 834.48 615.82 827.14 615.18 819.92 614.59 812.76 614.31 805.85 615.02 798.89 616.49 791.82 618.9 784.89 622.76 777.75 627.76 770.39 633.89 763.08 641.37 755.48 649.72 747.58 658.67 739.68 668.18 731.46 677.57 722.93 686.38 714.39 694.52 705.52 701.23 696.36 706.05 687.2 709.13 677.98 709.8 668.73 708.08 659.51 704.54 650.29 698.9 641.14 691.52 632.03 683.06 623.02 673.54 614.15 663.42 605.37 653.3 596.77 643.27 588.42 633.64 580.18 624.9 572.21 616.96 564.58 609.93 557.09 604.13 549.96 599.24 543.24 595.19 536.66 592.21 530.5 589.8 524.79 587.75 516.62 585.68 502.51 581.22 496.48 577.96 490.74 573.86 480.48 561.54 475.76 553.28 472.43 547.24 469.23 540.53 466.16 533.23 462.79 525.7 459.52 517.66 456.39 509.2 452.99 500.6 449.74 491.67 446.72 482.47 443.53 473.21 440.63 463.74 438.11 454.12 435.58 444.48 433.53 434.73 432.05 424.88 430.75 415.03 430.15 405.33 430.27 395.78 430.67 386.22 431.83 376.78 433.72 367.47 435.92 358.12 438.84 348.85 442.41 339.65 446.24 330.37 450.66 321.12 455.61 311.9 460.68 302.55 466.19 293.19 472.06 283.82 477.92 274.33 484.04 264.82 490.39 255.33 496.59 245.76 502.95 236.24 509.42 226.84 515.68 217.48 522.03 208.34 528.46 199.51 534.65 190.9 540.93 182.74 547.31 175.15 553.46 167.98 559.75 161.51 566.19 155.86 572.45 150.76 578.9 146.55 585.56 143.28 592.09 140.55 598.87 138.71 605.9 137.74 612.85 137.09 620.09 137.12 627.61 137.7 635.08 138.23 642.86 139.03 650.94 139.97 658.99 140.41 667.35 140.74 676.03 140.84 684.69 140.18 693.68 139.19 702.99 137.91" stroke-dasharray="9 5" transform="rotate(4.04, 711, 400)"></path><path d="M708.32 149.27C717.37 147.31 726.56 145.26 735.86 143.25 745.18 140.94 754.63 138.98 764.19 137.49 773.79 136.15 783.52 135.56 793.34 135.8 803.2 136.53 813.15 138.23 823.14 140.9 833.14 144.19 843.14 148.43 853.08 153.56 862.94 159.21 872.65 165.61 882.1 172.64 891.34 179.99 900.2 187.8 908.53 195.96 916.47 204.19 923.73 212.62 930.19 221.15 936.07 229.57 941.01 238.02 944.91 246.43 948.13 254.63 950.28 262.79 951.31 270.89 951.76 278.76 951.22 286.6 949.77 294.43 948.06 302.05 945.74 309.72 942.99 317.46 940.53 325.05 938.05 332.78 935.78 340.66 934.4 348.45 933.63 356.45 933.63 364.68 934.93 372.87 937.19 381.32 940.42 390.06 944.95 398.79 950.29 407.82 956.25 417.17 962.98 426.51 969.65 435.97 975.96 445.49 982.17 455.01 987.44 464.6 991.55 474.2 994.84 483.78 996.63 493.33 996.84 502.79 995.9 512.18 993.34 521.4 989.27 530.36 984.13 539.15 977.68 547.58 970.12 555.54 961.85 563.2 952.8 570.27 943.17 576.64 933.29 582.58 923.14 587.72 912.9 591.98 902.77 595.76 892.74 598.64 882.91 600.61 873.42 602.21 864.19 603.02 855.25 603.12 846.7 603.18 838.42 602.82 830.38 602.23 822.67 602.1 815.13 602.14 807.69 602.56 800.49 603.99 793.3 606.16 786.08 609.23 779 613.62 771.8 619.02 764.44 625.39 757.15 632.93 749.66 641.18 741.93 649.86 734.23 658.97 726.27 667.89 718.06 676.19 709.85 683.85 701.38 690.14 692.66 694.69 683.95 697.65 675.21 698.38 666.49 696.93 657.79 693.79 649.12 688.7 640.54 681.95 632.01 674.14 623.59 665.27 615.34 655.71 607.17 646.04 599.19 636.32 591.46 626.83 583.84 618.02 576.5 609.84 569.48 602.42 562.59 596.06 556.04 590.52 549.88 585.74 541.01 580.4 525.41 573.06 518.66 570.17 512.32 567.59 501.18 560.54 496.23 555.57 492.84 551.88 489.63 547.52 486.59 542.48 483.28 537.23 480.09 531.34 477.02 524.86 473.65 518.19 470.38 510.99 467.23 503.34 463.82 495.56 460.57 487.38 457.54 478.88 454.34 470.32 451.44 461.48 448.89 452.41 446.35 443.32 444.28 434.04 442.75 424.59 441.4 415.14 440.73 405.76 440.76 396.44 441.06 387.13 442.1 377.87 443.85 368.67 445.92 359.44 448.67 350.25 452.08 341.09 455.74 331.87 459.99 322.65 464.76 313.43 469.68 304.14 475.03 294.83 480.76 285.52 486.5 276.14 492.53 266.78 498.78 257.47 504.94 248.15 511.26 238.94 517.7 229.9 523.97 220.97 530.33 212.32 536.78 204.04 543.01 196.02 549.32 188.49 555.72 181.57 561.91 175.08 568.21 169.29 574.64 164.31 580.89 159.85 587.3 156.23 593.89 153.49 600.35 151.23 607.02 149.78 613.92 149.1 620.73 148.68 627.79 148.84 635.12 149.48 642.39 150.02 649.94 150.78 657.78 151.64 665.59 152.01 673.71 152.24 682.13 152.27 690.53 151.56 699.26 150.55 708.32 149.27" stroke-dasharray="6 3" transform="rotate(8.08, 711, 400)"></path><path d="M713.8 160.64C722.59 158.71 731.51 156.72 740.53 154.76 749.56 152.49 758.72 150.54 767.96 149.01 777.23 147.59 786.59 146.85 796.02 146.86 805.45 147.3 814.93 148.64 824.39 150.89 833.83 153.7 843.21 157.42 852.45 161.99 861.58 167.08 870.48 172.93 879.07 179.43 887.42 186.27 895.32 193.62 902.67 201.37 909.62 209.26 915.89 217.41 921.36 225.73 926.31 234.01 930.36 242.37 933.45 250.75 935.97 258.99 937.52 267.21 938.09 275.4 938.21 283.41 937.49 291.39 936.02 299.35 934.41 307.14 932.32 314.95 929.92 322.8 927.87 330.51 925.86 338.31 924.09 346.22 923.18 354.04 922.84 362.02 923.21 370.18 924.76 378.28 927.15 386.6 930.4 395.14 934.81 403.67 939.92 412.44 945.56 421.45 951.89 430.47 958.15 439.52 964.08 448.58 969.95 457.63 974.99 466.67 978.99 475.66 982.3 484.61 984.26 493.47 984.8 502.15 984.33 510.74 982.38 519.1 979.03 527.13 974.69 534.99 969.09 542.43 962.41 549.36 955.03 556.01 946.82 562.05 937.98 567.4 928.82 572.39 919.29 576.63 909.56 580.06 899.84 583.13 890.1 585.41 880.46 586.92 871.05 588.22 861.81 588.88 852.8 589.02 844.11 589.25 835.63 589.23 827.37 589.12 819.41 589.55 811.61 590.24 803.94 591.36 796.5 593.47 789.11 596.29 781.74 599.94 774.52 604.77 767.24 610.49 759.88 617.04 752.59 624.57 745.16 632.65 737.59 641.04 730.04 649.74 722.3 658.17 714.38 665.98 706.46 673.15 698.35 679.05 690.05 683.32 681.75 686.16 673.48 686.96 665.26 685.74 657.06 682.99 648.92 678.42 640.91 672.27 632.93 665.11 625.09 656.89 617.44 647.92 609.85 638.75 602.47 629.39 595.35 620.13 588.31 611.37 581.55 603.07 575.12 595.38 568.78 588.58 562.77 582.49 557.13 577.09 548.98 570.66 534.59 561.28 528.31 557.6 522.35 554.47 511.73 547.2 506.92 542.54 502.01 537.25 492.5 523.53 487.81 515.13 484.44 509.19 481.16 502.73 478 495.79 474.59 488.76 471.34 481.29 468.3 473.45 465.11 465.55 462.2 457.33 459.65 448.81 457.1 440.28 455.01 431.48 453.45 422.46 452.06 413.43 451.33 404.39 451.26 395.36 451.48 386.33 452.4 377.3 454 368.28 455.92 359.24 458.5 350.2 461.72 341.16 465.2 332.08 469.26 322.98 473.84 313.88 478.58 304.74 483.76 295.6 489.31 286.48 494.91 277.34 500.81 268.25 506.95 259.25 513.03 250.3 519.28 241.51 525.68 232.95 531.92 224.55 538.28 216.48 544.72 208.81 550.98 201.45 557.31 194.61 563.73 188.39 569.96 182.58 576.28 177.48 582.71 173.16 588.98 169.31 595.38 166.25 601.93 164 608.35 162.16 614.95 161.05 621.76 160.62 628.46 160.38 635.4 160.64 642.57 161.32 649.68 161.84 657.05 162.55 664.69 163.32 672.29 163.6 680.18 163.74 688.37 163.69 696.53 162.94 705.01 161.91 713.8 160.64" stroke-dasharray="11 6" transform="rotate(12.12, 711, 400)"></path><path d="M719.12 172C727.64 170.12 736.26 168.18 744.96 166.28 753.67 164.07 762.47 162.13 771.34 160.59 780.21 159.1 789.14 158.23 798.09 158.05 807.03 158.22 815.95 159.22 824.81 161.07 833.61 163.42 842.29 166.63 850.78 170.66 859.13 175.18 867.19 180.45 874.89 186.38 882.33 192.68 889.3 199.51 895.69 206.78 901.71 214.24 907.05 222.02 911.62 230.02 915.74 238.05 919.01 246.22 921.42 254.46 923.35 262.62 924.43 270.8 924.66 278.98 924.57 287.03 923.77 295.07 922.36 303.09 920.91 310.98 919.1 318.87 917.07 326.77 915.44 334.57 913.9 342.41 912.61 350.32 912.14 358.16 912.19 366.1 912.88 374.16 914.64 382.18 917.15 390.35 920.39 398.67 924.66 406.98 929.54 415.47 934.86 424.12 940.8 432.78 946.67 441.4 952.23 449.96 957.76 458.52 962.56 466.98 966.43 475.32 969.72 483.63 971.81 491.75 972.63 499.65 972.57 507.45 971.16 514.95 968.46 522.08 964.86 529.04 960.08 535.54 954.25 541.53 947.73 547.26 940.38 552.4 932.36 556.88 923.96 561.07 915.12 564.58 906 567.38 896.79 569.92 887.48 571.8 878.16 573.05 868.97 574.22 859.87 574.91 850.93 575.22 842.22 575.75 833.68 576.15 825.32 576.58 817.21 577.6 809.25 578.94 801.43 580.74 793.82 583.47 786.28 586.87 778.8 591.01 771.46 596.21 764.12 602.17 756.76 608.8 749.47 616.26 742.1 624.13 734.65 632.19 727.23 640.46 719.69 648.42 712.03 655.73 704.38 662.44 696.59 667.95 688.68 671.96 680.77 674.67 672.93 675.52 665.19 674.52 657.45 672.13 649.83 668.05 642.35 662.49 634.89 655.96 627.6 648.38 620.51 640.03 613.47 631.39 606.66 622.46 600.1 613.5 593.61 604.89 587.39 596.59 581.49 588.74 575.66 581.64 570.14 575.11 564.96 569.19 559.83 564.1 555.04 559.54 550.59 555.44 544.09 550.46 532.56 542.1 527.42 538.1 522.32 534.17 512.74 524.56 508.13 518.6 504.84 514.39 501.64 509.65 498.53 504.4 495.14 499.05 491.85 493.21 488.68 486.89 485.28 480.49 482.04 473.66 478.99 466.43 475.82 459.14 472.93 451.5 470.38 443.52 467.84 435.52 465.74 427.22 464.15 418.63 462.72 410.05 461.94 401.39 461.79 392.69 461.91 383.99 462.71 375.24 464.17 366.47 465.93 357.7 468.34 348.88 471.36 340.05 474.65 331.21 478.5 322.34 482.86 313.48 487.4 304.61 492.38 295.75 497.73 286.93 503.16 278.15 508.9 269.45 514.9 260.89 520.86 252.42 527.01 244.16 533.32 236.17 539.52 228.38 545.84 220.95 552.26 213.97 558.51 207.3 564.86 201.17 571.28 195.65 577.53 190.54 583.87 186.11 590.31 182.41 596.59 179.14 602.99 176.6 609.52 174.79 615.92 173.32 622.48 172.5 629.21 172.29 635.84 172.19 642.68 172.52 649.72 173.2 656.7 173.69 663.92 174.32 671.38 174.99 678.8 175.18 686.49 175.23 694.44 175.1 702.38 174.31 710.61 173.27 719.12 172" stroke-dasharray="4 4" transform="rotate(16.16, 711, 400)"></path><path d="M723.96 183.36C732.18 181.54 740.47 179.66 748.82 177.81 757.17 175.67 765.57 173.77 774 172.21 782.43 170.69 790.87 169.71 799.27 169.35 807.65 169.29 815.97 169.99 824.16 171.45 832.28 173.37 840.22 176.09 847.92 179.59 855.46 183.55 862.68 188.23 869.49 193.57 876.06 199.28 882.13 205.55 887.63 212.28 892.78 219.24 897.28 226.56 901.06 234.15 904.44 241.83 907.07 249.7 908.91 257.69 910.38 265.66 911.11 273.69 911.12 281.75 910.91 289.74 910.12 297.74 908.83 305.72 907.6 313.61 906.11 321.5 904.47 329.4 903.25 337.2 902.16 345.04 901.32 352.9 901.25 360.7 901.66 368.56 902.64 376.49 904.58 384.39 907.17 392.38 910.38 400.46 914.51 408.53 919.15 416.71 924.16 424.98 929.73 433.26 935.21 441.43 940.41 449.47 945.6 457.5 950.14 465.38 953.87 473.06 957.12 480.71 959.29 488.12 960.34 495.24 960.63 502.28 959.69 508.97 957.58 515.25 954.67 521.39 950.64 527.06 945.62 532.21 939.94 537.15 933.44 541.53 926.24 545.31 918.64 548.87 910.55 551.83 902.1 554.18 893.5 556.38 884.71 558.04 875.83 559.21 866.99 560.41 858.17 561.26 849.42 561.88 840.83 562.78 832.36 563.67 824.03 564.68 815.89 566.3 807.88 568.26 800.01 570.68 792.3 573.97 784.69 577.87 777.17 582.43 769.76 587.91 762.39 594.01 755.04 600.67 747.77 607.99 740.47 615.61 733.14 623.32 725.85 631.15 718.5 638.62 711.08 645.45 703.67 651.7 696.19 656.84 688.64 660.6 681.1 663.18 673.66 664.07 666.36 663.27 659.06 661.21 651.91 657.6 644.92 652.6 637.95 646.68 631.17 639.74 624.61 632.01 618.07 623.94 611.77 615.49 605.73 606.91 599.73 598.54 594.01 590.34 588.58 582.46 583.19 575.17 578.1 568.34 573.33 562.01 568.57 556.4 564.12 551.27 559.97 546.58 553.86 540.65 542.89 530.66 537.92 526.08 532.93 521.76 523.42 512.02 518.79 506.31 515.5 502.35 512.28 497.95 509.14 493.09 505.76 488.19 502.46 482.82 499.28 477.01 495.89 471.15 492.66 464.85 489.63 458.16 486.49 451.43 483.61 444.31 481.08 436.84 478.55 429.36 476.45 421.54 474.85 413.41 473.4 405.28 472.56 397.03 472.33 388.7 472.36 380.38 473.04 371.98 474.35 363.53 475.95 355.09 478.18 346.59 481 338.07 484.08 329.56 487.71 321.03 491.83 312.51 496.15 304.01 500.91 295.55 506.04 287.17 511.27 278.85 516.82 270.65 522.64 262.62 528.45 254.73 534.47 247.08 540.66 239.74 546.77 232.62 553.02 225.89 559.37 219.62 565.6 213.67 571.92 208.25 578.32 203.44 584.58 199 590.92 195.21 597.35 192.1 603.64 189.35 610.03 187.28 616.53 185.87 622.92 184.72 629.44 184.14 636.11 184.09 642.69 184.09 649.44 184.46 656.37 185.11 663.24 185.55 670.31 186.09 677.6 186.66 684.85 186.75 692.34 186.71 700.06 186.5 707.77 185.67 715.74 184.62 723.96 183.36" stroke-dasharray="3 3" transform="rotate(20.200000000000003, 711, 400)"></path><path d="M728.02 194.72C735.93 192.95 743.86 191.14 751.82 189.36 759.77 187.29 767.74 185.44 775.68 183.89 783.62 182.34 791.52 181.28 799.34 180.77 807.12 180.51 814.79 180.93 822.28 182.05 829.7 183.56 836.88 185.82 843.78 188.8 850.53 192.21 856.93 196.32 862.89 201.05 868.63 206.16 873.87 211.83 878.54 217.97 882.92 224.38 886.68 231.17 889.77 238.27 892.54 245.5 894.64 252.97 896.04 260.6 897.16 268.26 897.65 276.04 897.54 283.87 897.31 291.67 896.6 299.51 895.5 307.36 894.53 315.15 893.37 322.95 892.13 330.74 891.31 338.48 890.65 346.22 890.24 353.97 890.53 361.67 891.26 369.4 892.48 377.15 894.57 384.88 897.21 392.65 900.38 400.46 904.35 408.25 908.75 416.1 913.46 423.96 918.67 431.83 923.78 439.53 928.62 447.05 933.48 454.55 937.76 461.85 941.33 468.9 944.5 475.91 946.72 482.63 947.94 489.04 948.26 498.34 942.45 514.74 936.52 521.67 931.65 525.97 925.97 529.75 919.59 533 912.8 536.1 905.49 538.69 897.76 540.78 889.84 542.8 881.66 544.41 873.31 545.65 864.94 547 856.51 548.13 848.09 549.13 839.75 550.48 831.48 551.89 823.3 553.48 815.25 555.66 807.31 558.21 799.48 561.2 791.79 564.97 784.19 569.29 776.68 574.17 769.28 579.83 761.93 586.01 754.64 592.61 747.42 599.75 740.21 607.08 733.02 614.41 725.86 621.78 718.69 628.78 711.51 635.13 704.34 640.95 697.14 645.72 689.93 649.23 682.72 651.7 675.66 652.61 668.76 651.99 661.87 650.25 655.15 647.07 648.62 642.6 642.1 637.28 635.78 630.96 629.68 623.85 623.61 616.37 617.77 608.45 612.19 600.3 606.62 592.25 601.33 584.25 596.31 576.45 591.31 569.1 586.58 562.09 582.15 555.49 577.7 549.48 573.53 543.89 569.63 538.69 563.84 531.92 553.28 520.32 548.42 515.08 543.5 510.23 534 500.01 529.35 494.33 524.42 488.37 514.61 474.55 509.79 466.63 506.42 461.18 503.21 455.33 500.21 449.1 497.1 442.84 494.26 436.2 491.74 429.21 489.25 422.2 487.16 414.85 485.54 407.18 484.08 399.5 483.19 391.69 482.89 383.78 482.84 375.88 483.4 367.88 484.56 359.82 486 351.78 488.04 343.68 490.65 335.57 493.51 327.47 496.9 319.37 500.78 311.3 504.86 303.28 509.37 295.32 514.26 287.46 519.26 279.7 524.58 272.09 530.18 264.68 535.81 257.44 541.66 250.46 547.69 243.82 553.68 237.41 559.81 231.4 566.06 225.86 572.22 220.63 578.48 215.91 584.82 211.78 591.05 207.98 597.37 204.78 603.76 202.21 610.03 199.94 616.4 198.28 622.86 197.2 629.22 196.32 635.7 195.93 642.3 196 648.82 196.06 655.48 196.44 662.3 197.04 669.06 197.42 675.99 197.86 683.11 198.31 690.19 198.3 697.47 198.18 704.96 197.89 712.43 197.03 720.12 195.96 728.02 194.72" stroke-dasharray="3 8" transform="rotate(24.24, 711, 400)"></path><path d="M731.08 206.09C738.64 204.38 746.19 202.63 753.72 200.92 761.25 198.93 768.74 197.14 776.17 195.61 783.58 194.06 790.91 192.94 798.12 192.31 805.28 191.88 812.28 192.05 819.07 192.86 825.78 194 832.22 195.83 838.35 198.32 844.33 201.2 849.94 204.74 855.12 208.88 860.09 213.38 864.58 218.43 868.53 223.96 872.23 229.76 875.36 235.97 877.89 242.51 880.16 249.22 881.84 256.2 882.92 263.38 883.81 270.63 884.16 278.04 884.02 285.53 883.83 293.04 883.27 300.62 882.41 308.22 881.72 315.8 880.9 323.4 880.06 331 879.64 338.56 879.37 346.13 879.34 353.68 879.97 361.21 880.97 368.74 882.41 376.25 884.6 383.75 887.27 391.25 890.38 398.74 894.19 406.22 898.36 413.7 902.76 421.14 907.61 428.58 912.36 435.81 916.86 442.81 921.39 449.79 925.41 456.52 928.79 462.97 932.98 472.43 936.18 489.58 934.96 497.14 931.87 504.13 920.4 515.7 912.37 520.26 906.39 523.07 899.86 525.45 892.9 527.44 885.7 529.44 878.18 531.13 870.45 532.56 862.64 534.16 854.7 535.65 846.71 537.09 838.75 538.91 830.78 540.84 822.87 542.99 815.04 545.71 807.28 548.78 799.6 552.26 792.03 556.43 784.53 561.08 777.13 566.19 769.81 571.96 762.56 578.14 755.38 584.62 748.25 591.53 741.18 598.53 734.14 605.45 727.15 612.38 720.17 618.89 713.22 624.79 706.29 630.17 699.37 634.6 692.47 637.87 685.58 640.21 678.87 641.14 672.35 640.69 665.82 639.23 659.49 636.45 653.37 632.49 647.25 627.74 641.35 622.03 635.67 615.55 630 608.66 624.56 601.3 619.38 593.64 614.19 585.98 609.26 578.28 604.59 570.66 599.92 563.36 595.5 556.3 591.34 549.54 587.15 543.27 583.2 537.33 579.49 531.74 573.93 524.25 563.67 511.15 558.87 505.25 553.98 499.82 544.46 488.86 539.77 483.05 534.82 477.11 525.01 463.74 520.2 456.22 516.87 451.08 513.69 445.58 510.72 439.73 507.66 433.86 504.87 427.65 502.38 421.09 499.93 414.52 497.86 407.62 496.24 400.4 494.77 393.19 493.85 385.83 493.48 378.37 493.34 370.92 493.78 363.38 494.8 355.77 496.08 348.19 497.93 340.56 500.32 332.93 502.95 325.33 506.1 317.74 509.72 310.21 513.54 302.74 517.78 295.36 522.4 288.12 527.14 280.98 532.22 274.02 537.57 267.3 542.98 260.75 548.61 254.48 554.44 248.57 560.26 242.88 566.24 237.6 572.34 232.78 578.39 228.24 584.54 224.19 590.79 220.7 596.94 217.48 603.19 214.83 609.51 212.74 615.74 210.89 622.05 209.58 628.44 208.78 634.75 208.11 641.16 207.87 647.67 208.01 654.12 208.1 660.68 208.45 667.36 208.99 674 209.28 680.79 209.62 687.71 209.95 694.62 209.84 701.68 209.63 708.91 209.26 716.12 208.37 723.52 207.31 731.08 206.09" stroke-dasharray="5 0" transform="rotate(28.28, 711, 400)"></path><path d="M732.94 217.45C740.13 215.8 747.27 214.13 754.35 212.5 761.43 210.59 768.43 208.87 775.32 207.38 782.2 205.84 788.95 204.68 795.53 203.96 802.07 203.39 808.41 203.35 814.51 203.88 823.39 205.41 839.36 212.04 846.28 217.1 850.57 220.99 854.4 225.42 857.73 230.32 860.86 235.49 863.47 241.08 865.55 247.02 867.44 253.15 868.81 259.56 869.68 266.21 870.43 272.97 870.74 279.9 870.64 286.96 870.56 294.07 870.19 301.28 869.59 308.53 869.2 315.79 868.74 323.09 868.27 330.39 868.22 337.69 868.32 344.98 868.65 352.26 869.56 359.53 870.8 366.78 872.41 373.99 874.68 381.2 877.35 388.38 880.38 395.51 884.03 402.64 887.95 409.72 892.07 416.73 896.57 423.73 900.96 430.49 905.12 436.99 909.34 443.47 913.09 449.67 916.28 455.57 920.34 464.21 923.94 479.71 923.26 486.49 920.94 492.77 911.46 503.24 904.57 507.45 899.37 510.12 893.63 512.44 887.43 514.46 880.98 516.56 874.18 518.44 867.11 520.14 859.92 522.07 852.56 523.96 845.09 525.86 837.6 528.15 830.06 530.59 822.52 533.25 815.02 536.45 807.54 539.97 800.13 543.85 792.77 548.33 785.48 553.21 778.26 558.47 771.11 564.27 764.03 570.36 757.02 576.67 750.06 583.3 743.15 589.95 736.32 596.45 729.51 602.91 722.75 608.96 716.05 614.41 709.36 619.38 702.71 623.47 696.12 626.51 689.52 628.72 683.14 629.66 676.96 629.36 670.78 628.16 664.8 625.76 659.05 622.27 653.28 618.06 647.74 612.95 642.43 607.08 637.11 600.8 632.02 594.02 627.17 586.88 622.31 579.68 617.68 572.35 613.3 565.01 608.89 557.87 604.71 550.88 600.77 544.09 596.77 537.68 593 531.53 589.43 525.65 585.78 520.2 582.31 515 579.02 510.04 573.97 503.24 564.32 490.69 559.64 484.67 554.76 478.87 545.08 466.75 540.27 460.24 536.91 455.86 533.65 451.22 530.51 446.28 527.22 441.36 524.1 436.12 521.17 430.58 518.17 425.04 515.43 419.18 512.99 413.02 510.59 406.85 508.55 400.37 506.94 393.6 505.47 386.83 504.51 379.94 504.09 372.95 503.87 365.98 504.2 358.92 505.08 351.83 506.19 344.75 507.85 337.65 510.02 330.56 512.42 323.52 515.32 316.51 518.67 309.58 522.21 302.73 526.17 295.99 530.49 289.4 534.96 282.94 539.75 276.68 544.82 270.67 549.97 264.83 555.36 259.29 560.95 254.1 566.55 249.13 572.33 244.55 578.24 240.42 584.12 236.53 590.12 233.11 596.22 230.19 602.25 227.51 608.38 225.33 614.58 223.66 620.72 222.17 626.94 221.14 633.22 220.56 639.45 220.06 645.75 219.91 652.14 220.09 658.48 220.18 664.91 220.48 671.44 220.93 677.94 221.13 684.54 221.35 691.26 221.56 697.96 221.36 704.78 221.06 711.73 220.63 718.67 219.71 725.74 218.65 732.94 217.45" stroke-dasharray="5 10" transform="rotate(32.32, 711, 400)"></path><path d="M733.49 228.81C740.29 227.23 747.01 225.64 753.62 224.08 760.23 222.27 766.72 220.62 773.07 219.19 779.4 217.68 785.57 216.51 791.54 215.72 800.32 214.93 816.51 216.17 823.78 218.34 830.52 221.5 841.83 230.97 846.28 237.15 850.05 244.15 855.1 260.34 856.43 269.29 857.13 275.48 857.46 281.87 857.47 288.41 857.55 295.03 857.4 301.77 857.09 308.57 857.01 315.42 856.88 322.32 856.78 329.23 857.07 336.16 857.5 343.1 858.13 350.02 859.29 356.94 860.73 363.84 862.48 370.69 864.8 377.55 867.45 384.36 870.39 391.09 873.85 397.83 877.54 404.5 881.37 411.06 885.54 417.62 889.59 423.92 893.42 429.94 897.32 435.94 900.8 441.66 903.8 447.07 907.69 455 911.56 469.14 911.33 475.31 909.67 481.08 901.99 490.85 896.17 494.91 891.72 497.55 886.74 499.94 881.3 502.09 875.6 504.38 869.53 506.51 863.17 508.56 856.66 510.85 849.93 513.14 843.05 515.5 836.11 518.24 829.08 521.14 822 524.26 814.93 527.85 807.84 531.74 800.77 535.93 793.74 540.63 786.74 545.65 779.8 550.97 772.9 556.71 766.05 562.67 759.28 568.75 752.55 575.06 745.87 581.32 739.27 587.4 732.7 593.4 726.18 598.98 719.74 603.99 713.31 608.57 706.94 612.33 700.64 615.15 694.35 617.23 688.27 618.18 682.41 618 676.54 617.04 670.89 614.99 665.45 611.95 660.01 608.25 654.79 603.7 649.78 598.44 644.77 592.77 639.97 586.58 635.4 580 630.81 573.3 626.43 566.4 622.27 559.42 618.08 552.55 614.1 545.73 610.32 539.03 606.48 532.61 602.82 526.37 599.35 520.34 595.79 514.65 592.39 509.18 589.13 503.9 584.13 496.56 574.48 482.93 569.77 476.45 564.87 470.23 555.17 457.62 550.38 451.04 545.43 444.37 535.95 429.96 531.55 422.15 528.63 416.86 525.96 411.31 523.58 405.5 521.23 399.69 519.23 393.61 517.64 387.28 516.17 380.95 515.2 374.52 514.71 368.02 514.42 361.54 514.65 355 515.39 348.44 516.34 341.9 517.81 335.37 519.76 328.87 521.93 322.42 524.57 316.03 527.64 309.75 530.89 303.54 534.55 297.47 538.57 291.58 542.73 285.8 547.22 280.25 551.99 274.96 556.84 269.82 561.94 264.99 567.25 260.51 572.6 256.22 578.12 252.31 583.79 248.82 589.46 245.53 595.25 242.67 601.15 240.27 607.02 238.05 612.98 236.28 619.01 234.96 625 233.76 631.07 232.96 637.2 232.54 643.29 232.14 649.45 232.05 655.68 232.23 661.87 232.29 668.14 232.52 674.48 232.87 680.79 232.95 687.19 233.06 693.67 233.15 700.13 232.86 706.69 232.47 713.33 231.98 719.96 231.05 726.69 229.98 733.49 228.81" stroke-dasharray="8 8" transform="rotate(36.36, 711, 400)"></path><path d="M732.71 240.18C739.1 238.66 745.37 237.15 751.51 235.68 757.64 233.97 763.62 232.41 769.43 231.03 781 228.08 791.77 226.5 801.51 226.55 810.97 227.31 819.19 230.1 825.94 234.85 832.25 240.63 836.99 248.25 840.1 257.37 842.91 267.26 844.34 278.31 844.6 290.13 845.26 302.32 845.46 315 845.59 327.86 847.17 340.85 849.43 353.89 852.61 366.75 854.96 373.19 857.56 379.58 860.39 385.89 863.67 392.21 867.12 398.44 870.67 404.56 874.52 410.67 878.24 416.52 881.75 422.1 885.34 427.67 888.56 432.95 891.35 437.94 896.43 447.87 899.11 456.59 899.2 464.05 897.81 471.48 893.7 477.75 887.18 482.97 879.38 488.48 869.65 493.37 858.52 497.94 846.77 503.5 834.15 509.41 821.09 515.98 807.94 524.21 794.63 533.47 781.43 543.65 768.33 555.17 755.37 566.99 742.72 578.29 736.42 583.83 730.18 588.96 724.02 593.55 717.87 597.74 711.79 601.19 705.79 603.78 696.89 606.21 680.19 605 672.36 601.52 662.03 594.53 652.52 584.71 643.87 572.95 635.09 560.52 627.08 547.4 619.83 534.26 612.31 521.87 605.39 509.99 599.04 498.8 592.21 488.67 585.75 479.03 579.66 469.71 572.92 461.1 566.45 452.36 560.32 443.29 553.63 434.5 547.4 425.05 541.87 414.87 539.04 409.8 536.44 404.51 534.13 399.02 531.85 393.53 529.91 387.82 528.34 381.91 526.89 376 525.9 370.03 525.37 364.03 525.01 358.03 525.14 352.02 525.74 346.01 527.56 334.07 531.26 322.29 536.65 310.97 542.75 299.94 550.33 289.6 559.09 280.28 568.24 271.49 578.32 263.97 589.06 257.96 599.87 252.59 611.19 248.78 622.83 246.57 634.38 244.67 646.24 244.01 658.3 244.39 670.26 244.23 682.49 244.43 694.9 244.71 701.1 244.33 707.36 243.87 713.66 243.32 719.96 242.37 726.32 241.31 732.71 240.18" stroke-dasharray="1 3" transform="rotate(40.400000000000006, 711, 400)"></path><path d="M730.63 251.54C742.56 248.35 753.9 245.38 764.5 242.91 775.03 240.06 784.71 238.41 793.34 238.18 801.74 238.48 808.95 240.58 814.81 244.43 820.36 249.15 824.52 255.58 827.3 263.45 829.94 272.03 831.47 281.78 832.07 292.35 833.17 303.32 833.93 314.86 834.69 326.65 836.77 338.61 839.42 350.67 842.81 362.6 847.9 374.58 853.73 386.36 859.97 397.71 867.24 409.06 873.72 419.4 878.93 428.67 883.72 437.91 886.43 446.07 886.88 453.15 886.13 460.29 882.97 466.5 877.62 471.91 871.14 477.71 862.82 483.1 853.11 488.36 842.75 494.58 831.44 501.19 819.58 508.4 807.53 517 795.2 526.42 782.86 536.48 770.55 547.55 758.31 558.66 746.32 569.12 734.37 579.09 722.63 587.14 711.24 592.42 699.84 595.49 689.26 594.92 679.51 590.98 669.69 584.95 660.65 576.27 652.38 565.69 643.97 554.36 636.24 542.14 629.17 529.67 621.83 517.64 615.01 505.87 608.67 494.6 601.88 484.16 595.42 474.14 589.3 464.45 582.6 455.4 576.17 446.36 570.11 437.17 563.57 428.27 557.5 418.94 552.13 409.11 546.66 399.33 542.19 388.92 539.03 377.9 536.32 366.89 535.37 355.82 536.14 344.89 537.64 334.05 540.89 323.49 545.72 313.48 551.22 303.71 558.13 294.7 566.18 286.71 574.65 279.15 584.04 272.8 594.11 267.83 604.32 263.33 615.06 260.21 626.13 258.46 637.19 256.85 648.54 256.28 660.07 256.55 671.55 256.24 683.23 256.2 695.02 256.23 706.79 254.96 718.71 253.39 730.63 251.54" stroke-dasharray="3 5" transform="rotate(44.44, 711, 400)"></path><path d="M727.39 262.9C738.44 259.9 748.83 257.13 758.45 254.81 768 252.1 776.68 250.44 784.33 250 791.82 249.92 798.19 251.42 803.34 254.48 808.3 258.25 812.06 263.57 814.66 270.24 817.26 277.55 818.97 286 819.95 295.29 821.48 304.99 822.77 315.29 824.09 325.94 826.58 336.77 829.54 347.77 833.06 358.7 838.02 369.7 843.52 380.55 849.27 391.03 855.9 401.52 861.8 411.12 866.55 419.78 871.03 428.43 873.7 436.17 874.42 443.04 874.18 450.01 871.82 456.29 867.51 461.99 862.22 468.1 855.22 474 846.86 479.89 837.89 486.65 827.92 493.8 817.29 501.45 806.44 510.24 795.19 519.63 783.81 529.42 772.42 539.92 761 550.28 749.74 559.89 738.52 568.96 727.45 576.26 716.68 581.06 705.9 583.96 695.87 583.64 686.6 580.33 677.28 575.19 668.64 567.62 660.7 558.21 652.61 548 645.11 536.8 638.19 525.15 631 513.69 624.26 502.27 617.93 491.16 611.2 480.66 604.76 470.48 598.64 460.62 592.03 451.29 585.69 442.04 579.73 432.8 573.38 423.82 567.51 414.61 562.33 405.1 557.09 395.66 552.8 385.8 549.73 375.56 547.07 365.31 546.03 355.18 546.58 345.33 547.78 335.55 550.6 326.16 554.88 317.39 559.77 308.82 565.99 301.03 573.31 294.24 581.05 287.79 589.7 282.44 599.02 278.35 608.54 274.57 618.59 271.98 629 270.57 639.45 269.14 650.19 268.57 661.08 268.69 671.98 268.19 683.03 267.93 694.11 267.71 705.2 266.33 716.34 264.71 727.39 262.9" stroke-dasharray="11 8" transform="rotate(48.48, 711, 400)"></path><path d="M723.18 274.26C733.33 271.46 742.81 268.89 751.5 266.75 760.13 264.2 767.91 262.56 774.73 261.98 784.27 262.13 798 270.09 802.3 277.81 804.96 283.92 806.9 291.11 808.29 299.15 810.21 307.55 811.98 316.61 813.78 326.07 816.6 335.71 819.78 345.6 823.36 355.51 828.14 365.48 833.3 375.38 838.58 385.03 844.59 394.68 849.91 403.6 854.22 411.73 858.35 419.88 860.93 427.31 861.83 434.06 861.99 440.96 860.3 447.35 856.89 453.36 852.66 459.78 846.86 466.12 839.77 472.51 832.12 479.67 823.46 487.17 814.09 495.07 804.46 503.86 794.36 513.05 784.02 522.43 773.63 532.28 763.12 541.84 752.67 550.58 742.24 558.79 731.9 565.35 721.78 569.7 711.65 572.42 702.18 572.32 693.38 569.59 684.52 565.27 676.27 558.73 668.62 550.48 660.83 541.41 653.55 531.28 646.76 520.58 639.72 509.87 633.06 499.02 626.77 488.3 620.13 477.99 613.75 467.88 607.67 458.06 601.19 448.64 594.99 439.34 589.18 430.15 583.06 421.19 577.42 412.13 572.46 402.97 567.48 393.87 563.38 384.55 560.43 375.04 557.84 365.54 556.74 356.31 557.08 347.47 558 338.69 560.39 330.39 564.13 322.76 568.42 315.28 573.96 308.59 580.53 302.84 587.5 297.33 595.36 292.84 603.89 289.45 612.63 286.23 621.93 284.03 631.58 282.82 641.31 281.48 651.34 280.84 661.51 280.77 671.71 280.09 682.04 279.59 692.36 279.15 702.69 277.67 713.02 276.02 723.18 274.26" stroke-dasharray="6 2" transform="rotate(52.52, 711, 400)"></path><path d="M718.24 285.63C727.51 283.01 736.1 280.66 743.93 278.7 751.73 276.35 758.71 274.77 764.82 274.11 773.43 273.87 786.12 279.91 790.39 286.19 793.15 291.19 795.34 297.2 797.11 304.05 799.4 311.21 801.57 319.03 803.75 327.31 806.81 335.76 810.13 344.52 813.71 353.41 818.28 362.34 823.07 371.31 827.88 380.15 833.3 389 838.07 397.27 841.94 404.95 845.71 412.66 848.15 419.84 849.16 426.52 849.6 433.36 848.46 439.87 845.8 446.14 842.49 452.8 837.76 459.46 831.83 466.21 825.42 473.58 818.02 481.24 809.87 489.18 801.48 497.78 792.54 506.62 783.28 515.46 773.94 524.59 764.4 533.32 754.83 541.2 745.25 548.56 735.68 554.43 726.24 558.33 716.79 560.87 707.89 560.96 699.56 558.74 691.18 555.17 683.31 549.61 675.94 542.46 668.46 534.54 661.39 525.53 654.75 515.86 647.88 506.05 641.34 495.95 635.13 485.83 628.61 475.94 622.34 466.15 616.38 456.57 610.08 447.27 604.07 438.11 598.46 429.11 592.61 420.28 587.25 411.48 582.54 402.7 577.83 393.98 573.95 385.2 571.13 376.41 568.63 367.62 567.47 359.23 567.63 351.33 568.29 343.46 570.28 336.15 573.5 329.53 577.2 323.01 582.05 317.26 587.87 312.39 594.07 307.67 601.1 303.85 608.79 300.99 616.71 298.19 625.17 296.26 633.99 295.13 642.93 293.81 652.16 293.06 661.53 292.78 670.95 291.9 680.47 291.18 689.97 290.54 699.49 288.98 708.96 287.33 718.24 285.63" stroke-dasharray="5 7" transform="rotate(56.56, 711, 400)"></path><path d="M712.86 296.99C721.25 294.58 729.01 292.44 736.06 290.67 746.23 287.79 762.74 285.87 769.05 287.38 774.68 290.34 783.11 301.87 786.44 310.09 789.03 316.08 791.52 322.74 793.99 329.89 797.21 337.18 800.58 344.85 804.1 352.73 808.41 360.65 812.83 368.7 817.18 376.77 822.04 384.83 826.27 392.5 829.7 399.76 833.1 407.05 835.37 413.98 836.41 420.59 837.05 427.35 836.32 433.92 834.3 440.36 831.76 447.14 827.97 453.96 823.08 460.88 817.79 468.29 811.55 475.91 804.58 483.69 797.38 491.95 789.59 500.28 781.42 508.49 773.16 516.83 764.62 524.71 755.95 531.74 747.28 538.28 738.52 543.49 729.79 546.97 721.06 549.32 712.76 549.55 704.92 547.79 697.04 544.91 689.56 540.25 682.51 534.15 675.34 527.34 668.53 519.47 662.06 510.88 655.42 502.07 649.04 492.87 642.96 483.52 636.63 474.27 630.54 465.01 624.75 455.88 618.7 446.94 612.94 438.1 607.57 429.44 602.04 420.91 596.98 412.46 592.55 404.14 588.14 395.86 584.51 387.64 581.83 379.54 579.43 371.45 578.25 363.84 578.25 356.79 578.66 349.76 580.28 343.32 583 337.57 586.14 331.88 590.32 326.91 595.4 322.75 600.81 318.65 607.01 315.35 613.84 312.87 620.9 310.36 628.47 308.57 636.41 307.45 644.48 306.08 652.84 305.19 661.34 304.68 669.91 303.61 678.58 302.7 687.21 301.88 695.88 300.26 704.47 298.62 712.86 296.99" stroke-dasharray="2 0" transform="rotate(60.599999999999994, 711, 400)"></path><path d="M707.38 308.35C714.91 306.15 721.87 304.22 728.2 302.65 737.36 300.06 752.44 298.09 758.38 299.14 763.84 301.34 772.59 310.53 776.3 317.29 779.11 322.24 781.82 327.82 784.5 333.93 787.77 340.13 791.13 346.76 794.53 353.68 798.55 360.64 802.59 367.82 806.49 375.13 810.8 382.44 814.52 389.53 817.54 396.36 820.56 403.23 822.61 409.9 823.63 416.37 824.38 422.98 823.97 429.51 822.44 435.99 820.54 442.73 817.55 449.55 813.57 456.44 809.27 463.69 804.1 471.08 798.22 478.52 792.13 486.27 785.46 493.99 778.35 501.47 771.15 508.99 763.62 516 755.88 522.2 748.12 527.96 740.2 532.53 732.22 535.61 724.24 537.76 716.57 538.11 709.25 536.75 701.91 534.47 694.87 530.65 688.16 525.53 681.37 519.78 674.85 513.03 668.62 505.56 662.25 497.82 656.11 489.62 650.23 481.19 644.17 472.74 638.33 464.2 632.77 455.71 627.04 447.32 621.58 439 616.52 430.84 611.35 422.76 606.64 414.79 602.51 407.01 598.42 399.25 595.04 391.63 592.53 384.22 590.25 376.8 589.06 369.93 588.92 363.64 589.76 354.51 597.02 339.47 603.14 333.68 607.79 330.07 613.16 327.14 619.12 324.91 625.29 322.58 631.96 320.85 638.99 319.68 646.15 318.23 653.59 317.17 661.19 316.44 668.85 315.2 676.62 314.12 684.36 313.15 692.14 311.52 699.85 309.9 707.38 308.35" stroke-dasharray="7 10" transform="rotate(64.64, 711, 400)"></path><path d="M702.12 319.71C708.8 317.72 715.01 316.01 720.68 314.64 728.92 312.37 742.75 310.49 748.4 311.23 753.71 312.85 762.69 320.11 766.68 325.63 769.62 329.66 772.47 334.3 775.25 339.45 778.5 344.68 781.75 350.35 784.98 356.38 788.69 362.42 792.33 368.77 795.79 375.36 799.57 381.94 802.81 388.44 805.42 394.82 808.06 401.23 809.89 407.57 810.84 413.82 811.62 420.18 811.43 426.54 810.3 432.89 808.9 439.44 806.56 446.06 803.37 452.72 799.93 459.63 795.7 466.6 790.81 473.54 785.75 480.66 780.11 487.67 774.02 494.37 767.85 501.03 761.3 507.18 754.49 512.58 747.66 517.58 740.6 521.55 733.4 524.24 726.2 526.2 719.19 526.63 712.44 525.62 705.67 523.87 699.12 520.79 692.82 516.59 686.46 511.84 680.31 506.17 674.39 499.81 668.37 493.17 662.54 486.03 656.95 478.61 651.23 471.11 645.71 463.43 640.47 455.74 635.11 448.08 630.02 440.44 625.32 432.92 620.55 425.46 616.2 418.1 612.41 410.93 608.67 403.79 605.56 396.81 603.22 390.08 600.5 380.25 600.16 363.42 602.46 356.47 606.03 350.11 617.35 340.39 624.74 336.96 630.03 334.75 635.79 333.02 641.89 331.74 648.11 330.2 654.62 328.98 661.29 328.04 668.02 326.67 674.87 325.45 681.71 324.37 688.59 322.73 695.43 321.17 702.12 319.71" stroke-dasharray="10 7" transform="rotate(68.68, 711, 400)"></path><path d="M697.38 331.08C709.13 327.11 719.32 324.55 727.72 323.66 736.22 322.37 743.26 323.58 748.92 327.28 755.29 331.29 761.03 337.82 766.22 346.41 772.85 355.19 779.35 365.69 785.09 377.43 791.84 389.17 796.3 401.09 798.08 412.83 799.43 424.89 797.5 437.26 792.58 449.57 786.97 462.49 778.68 475.37 768.47 487.15 757.99 498.59 746.03 507.71 733.24 512.88 720.44 515.77 708.04 513.61 696.44 507.32 684.69 499.26 673.45 488.2 663.12 475.59 652.43 462.56 642.51 448.79 633.96 435.3 625.3 421.87 618.33 408.77 613.92 396.68 610.17 384.59 609.81 374.55 612.44 366.68 616 358.72 622.35 352.78 630.76 348.86 639.78 344.39 650.44 341.33 661.86 339.46 673.51 336.15 685.62 333.29 697.38 331.08" stroke-dasharray="9 10" transform="rotate(72.72, 711, 400)"></path><path d="M693.45 342.44C703.63 338.99 712.65 336.86 720.31 336.19 728.08 335.08 734.77 336.03 740.4 339.06 746.61 342.19 752.29 347.49 757.4 354.66 763.56 361.92 769.41 370.87 774.39 381.21 780.13 391.54 783.86 402.32 785.36 413.15 786.62 424.19 785.21 435.57 781.31 446.8 776.94 458.35 770.25 469.66 761.77 479.78 753.08 489.51 742.91 497.17 731.76 501.52 720.6 504.15 709.55 502.64 699.04 497.72 688.45 491.41 678.22 482.45 668.76 471.98 659.11 461.05 650.15 449.26 642.47 437.52 634.77 425.77 628.57 414.22 624.62 403.53 621.18 392.85 620.63 383.95 622.62 376.92 625.3 369.77 630.38 364.28 637.27 360.44 644.64 356.07 653.49 352.85 663.12 350.67 672.93 347.34 683.26 344.52 693.45 342.44" stroke-dasharray="8 9" transform="rotate(76.76, 711, 400)"></path><path d="M690.56 353.8C699.23 350.87 707.1 349.15 713.99 348.7 720.99 347.84 727.23 348.67 732.66 351.18 738.52 353.68 743.94 357.99 748.76 363.94 754.33 369.91 759.46 377.46 763.69 386.39 768.47 395.32 771.52 404.83 772.71 414.49 773.81 424.27 772.76 434.35 769.68 444.2 766.31 454.18 760.99 463.79 754.07 472.24 747.01 480.29 738.55 486.58 729.04 490.16 719.53 492.49 709.93 491.52 700.68 487.8 691.38 483.04 682.32 476.03 673.93 467.62 665.44 458.79 657.57 449.05 650.85 439.18 644.17 429.26 638.79 419.37 635.32 410.12 632.24 400.87 631.55 393.07 632.98 386.8 634.91 380.39 638.85 375.31 644.33 371.54 650.17 367.32 657.31 364.03 665.23 361.66 673.28 358.41 681.89 355.71 690.56 353.8" stroke-dasharray="10 2" transform="rotate(80.80000000000001, 711, 400)"></path><path d="M688.89 365.17C696.08 362.74 702.8 361.42 708.85 361.18 717.81 360.99 733.45 367.31 740.29 373.96 745.14 378.83 749.5 385.09 753 392.6 756.86 400.1 759.26 408.2 760.15 416.47 761.04 424.79 760.23 433.33 757.81 441.59 755.24 449.85 751.08 457.7 745.56 464.49 739.96 470.93 733.1 475.93 725.25 478.79 717.4 480.8 709.34 480.25 701.47 477.55 693.59 474.13 685.87 468.87 678.68 462.4 671.48 455.58 664.81 447.89 659.13 439.91 653.51 431.87 648.98 423.72 646.02 415.95 642.96 404.82 646.31 387.98 651.99 382.03 656.44 378.05 662.02 374.82 668.32 372.4 674.72 369.35 681.69 366.86 688.89 365.17" stroke-dasharray="11 2" transform="rotate(84.84, 711, 400)"></path><path d="M688.53 376.53C700.03 372.26 710.73 372.11 719.35 375.85 728.73 379.19 737.05 387.22 742.3 399.36 748.46 411.5 749.54 425.67 745.85 438.76 741.89 451.66 733.05 462.56 720.62 467.43 708.18 470.15 694.78 465.45 683.1 456.24 671.48 446.08 661.7 433.1 656.71 420.58 652.47 408.04 654.22 398.24 660.27 391.77 666.88 384.37 677.03 378.91 688.53 376.53" stroke-dasharray="6 3" transform="rotate(88.88, 711, 400)"></path><path d="M689.51 387.89C698.15 384.8 706.63 384.97 713.67 388.04 721.12 390.79 727.66 396.97 731.6 406.17 736.05 415.36 736.7 425.96 733.91 435.53 731.05 444.9 724.61 452.65 715.41 456.07 706.2 458.29 696.11 455.35 687.29 449.1 678.56 442.29 671.21 433.09 667.41 423.66 664.04 414.22 665.02 406.3 669.18 400.69 673.63 394.54 680.86 389.91 689.51 387.89" stroke-dasharray="7 6" transform="rotate(92.92, 711, 400)"></path><path d="M691.77 399.25C703.36 394.84 715.91 400.13 720.9 412.52 726.77 424.89 722.06 439.99 709.94 444.7 697.81 447.34 683.39 437.56 678.11 424.96 673.61 412.34 680.17 401.72 691.77 399.25" stroke-dasharray="1 2" transform="rotate(96.96, 711, 400)"></path></g></svg>