<svg xmlns="http://www.w3.org/2000/svg" version="1.1" xmlns:xlink="http://www.w3.org/1999/xlink" xmlns:svgjs="http://svgjs.dev/svgjs" viewBox="0 0 1422 800"><defs><linearGradient x1="50%" y1="0%" x2="50%" y2="100%" id="oooscillate-grad"><stop stop-color="hsl(37, 99%, 67%)" stop-opacity="1" offset="0%"></stop><stop stop-color="hsl(316, 73%, 52%)" stop-opacity="1" offset="100%"></stop></linearGradient></defs><g stroke-width="2.5" stroke="url(#oooscillate-grad)" fill="none" stroke-linecap="round"><path d="M 0 768 Q 355.5 -100 711 400 Q 1066.5 900 1422 768"></path><path d="M 0 744 Q 355.5 -100 711 400 Q 1066.5 900 1422 744"></path><path d="M 0 720 Q 355.5 -100 711 400 Q 1066.5 900 1422 720"></path><path d="M 0 696 Q 355.5 -100 711 400 Q 1066.5 900 1422 696"></path><path d="M 0 672 Q 355.5 -100 711 400 Q 1066.5 900 1422 672"></path><path d="M 0 648 Q 355.5 -100 711 400 Q 1066.5 900 1422 648"></path><path d="M 0 624 Q 355.5 -100 711 400 Q 1066.5 900 1422 624"></path><path d="M 0 600 Q 355.5 -100 711 400 Q 1066.5 900 1422 600"></path><path d="M 0 576 Q 355.5 -100 711 400 Q 1066.5 900 1422 576"></path><path d="M 0 552 Q 355.5 -100 711 400 Q 1066.5 900 1422 552"></path><path d="M 0 528 Q 355.5 -100 711 400 Q 1066.5 900 1422 528"></path><path d="M 0 504 Q 355.5 -100 711 400 Q 1066.5 900 1422 504"></path><path d="M 0 480 Q 355.5 -100 711 400 Q 1066.5 900 1422 480"></path><path d="M 0 456 Q 355.5 -100 711 400 Q 1066.5 900 1422 456"></path><path d="M 0 432 Q 355.5 -100 711 400 Q 1066.5 900 1422 432"></path><path d="M 0 408 Q 355.5 -100 711 400 Q 1066.5 900 1422 408"></path><path d="M 0 384 Q 355.5 -100 711 400 Q 1066.5 900 1422 384"></path><path d="M 0 360 Q 355.5 -100 711 400 Q 1066.5 900 1422 360"></path><path d="M 0 336 Q 355.5 -100 711 400 Q 1066.5 900 1422 336"></path><path d="M 0 312 Q 355.5 -100 711 400 Q 1066.5 900 1422 312"></path><path d="M 0 288 Q 355.5 -100 711 400 Q 1066.5 900 1422 288"></path><path d="M 0 264 Q 355.5 -100 711 400 Q 1066.5 900 1422 264"></path><path d="M 0 240 Q 355.5 -100 711 400 Q 1066.5 900 1422 240"></path><path d="M 0 216 Q 355.5 -100 711 400 Q 1066.5 900 1422 216"></path><path d="M 0 192 Q 355.5 -100 711 400 Q 1066.5 900 1422 192"></path><path d="M 0 168 Q 355.5 -100 711 400 Q 1066.5 900 1422 168"></path><path d="M 0 144 Q 355.5 -100 711 400 Q 1066.5 900 1422 144"></path><path d="M 0 120 Q 355.5 -100 711 400 Q 1066.5 900 1422 120"></path><path d="M 0 96 Q 355.5 -100 711 400 Q 1066.5 900 1422 96"></path><path d="M 0 72 Q 355.5 -100 711 400 Q 1066.5 900 1422 72"></path><path d="M 0 48 Q 355.5 -100 711 400 Q 1066.5 900 1422 48"></path></g></svg>