<svg xmlns="http://www.w3.org/2000/svg" version="1.1" xmlns:xlink="http://www.w3.org/1999/xlink" xmlns:svgjs="http://svgjs.dev/svgjs" width="1440" height="560" preserveAspectRatio="none" viewBox="0 0 1440 560"><g mask="url(&quot;#SvgjsMask1013&quot;)" fill="none"><rect width="1440" height="560" x="0" y="0" fill="rgba(0, 0, 0, 1)"></rect><path d="M 0,22 C 57.6,46 172.8,142.8 288,142 C 403.2,141.2 460.8,5.8 576,18 C 691.2,30.2 748.8,198.2 864,203 C 979.2,207.8 1036.8,36.2 1152,42 C 1267.2,47.8 1382.4,194 1440,232L1440 560L0 560z" fill="rgba(36, 36, 36, 1)"></path><path d="M 0,417 C 96,433.6 288,521.2 480,500 C 672,478.8 768,318.8 960,311 C 1152,303.2 1344,431 1440,461L1440 560L0 560z" fill="rgba(48, 48, 48, 1)"></path></g><defs><mask id="SvgjsMask1013"><rect width="1440" height="560" fill="#ffffff"></rect></mask></defs></svg>