<svg xmlns="http://www.w3.org/2000/svg" version="1.1" xmlns:xlink="http://www.w3.org/1999/xlink" xmlns:svgjs="http://svgjs.dev/svgjs" width="1440" height="560" preserveAspectRatio="none" viewBox="0 0 1440 560"><g mask="url(&quot;#SvgjsMask1069&quot;)" fill="none"><rect width="1440" height="560" x="0" y="0" fill="rgba(25, 25, 25, 1)"></rect><path d="M0,387.785C70.719,399.305,128.591,332.5,187.157,291.222C243.312,251.643,308.888,216.471,333.866,152.472C358.466,89.442,339.748,18.482,318.703,-45.823C300.137,-102.552,253.77,-141.656,221.229,-191.696C182.218,-251.684,176.72,-347.899,108.407,-369.199C40.366,-390.414,-17.351,-311.512,-84.255,-286.946C-145.26,-264.546,-216.997,-272.867,-267,-231.357C-320.528,-186.921,-351.005,-120.521,-366.444,-52.687C-382.74,18.91,-400.562,104.001,-356.738,162.917C-312.533,222.345,-214.342,196.532,-151.685,236.027C-89.929,274.954,-72.051,376.048,0,387.785" fill="#101010"></path><path d="M1440 1066.816C1543.424 1053.048 1646.078 1067.809 1744.966 1034.536 1867.737 993.227 2014.272 964.0260000000001 2078.985 851.815 2144.0190000000002 739.049 2121.163 589.385 2070.956 469.282 2025.513 360.575 1891.189 324.663 1819.522 231.142 1740.8220000000001 128.44299999999998 1746.525-36.910999999999945 1634.046-100.85799999999995 1519.859-165.77700000000004 1360.891-160.97299999999996 1248.038-93.76300000000003 1137.867-28.150999999999954 1126.089 123.00299999999999 1067.036 236.825 1023.2 321.317 968.96 396.626 945.721 488.933 920.295 589.925 905.397 692.488 926.65 794.439 951.787 915.018 969.168 1065.597 1077.972 1123.327 1188.093 1181.7559999999999 1316.4279999999999 1083.266 1440 1066.816" fill="#222222"></path></g><defs><mask id="SvgjsMask1069"><rect width="1440" height="560" fill="#ffffff"></rect></mask></defs></svg>