<svg xmlns="http://www.w3.org/2000/svg" version="1.1" xmlns:xlink="http://www.w3.org/1999/xlink" xmlns:svgjs="http://svgjs.dev/svgjs" width="1440" height="560" preserveAspectRatio="none" viewBox="0 0 1440 560"><g mask="url(&quot;#SvgjsMask1067&quot;)" fill="none"><rect width="1440" height="560" x="0" y="0" fill="rgba(25, 25, 25, 1)"></rect><path d="M0,717.768C131.634,740.254,247.439,631.979,358.335,557.58C467.258,484.505,583.671,410.737,636.559,290.707C689.172,171.303,681.777,32.435,644.875,-92.719C610.84,-208.151,536.124,-309.461,438.747,-380.176C352.324,-442.936,239.965,-438.903,135.78,-462.424C39.219,-484.224,-52.038,-521.252,-150.705,-513.254C-266.286,-503.885,-385.776,-485.15,-476.399,-412.802C-575.308,-333.84,-676.489,-223.189,-672.496,-96.69C-668.484,30.428,-530.266,104.802,-456.785,208.607C-399.261,289.87,-353.929,373.161,-287.443,447.27C-197.768,547.228,-132.371,695.157,0,717.768" fill="#101010"></path><path d="M1440 1152.257C1549.034 1147.937 1606.367 1020.664 1699.378 963.601 1795.216 904.804 1939.217 911.249 1993.412 812.735 2047.4180000000001 714.565 1995.991 591.842 1962.758 484.839 1933.491 390.606 1886.002 303.438 1814.21 235.745 1746.926 172.30200000000002 1653.925 155.28699999999998 1570.634 115.10300000000001 1467.852 65.51600000000002 1377.694-57.083999999999946 1267.318-28.100000000000023 1157.686 0.6879999999999882 1135.54 148.228 1076.351 244.89600000000002 1027.452 324.759 964.065 396.96500000000003 950.338 489.597 936.579 582.446 962.23 675.015 999.871 761 1037.974 848.04 1096.055 921.563 1167.068 984.69 1248.504 1057.084 1331.123 1156.5700000000002 1440 1152.257" fill="#222222"></path></g><defs><mask id="SvgjsMask1067"><rect width="1440" height="560" fill="#ffffff"></rect></mask></defs></svg>