<svg xmlns="http://www.w3.org/2000/svg" version="1.1" xmlns:xlink="http://www.w3.org/1999/xlink" xmlns:svgjs="http://svgjs.dev/svgjs" width="1440" height="560" preserveAspectRatio="none" viewBox="0 0 1440 560"><g mask="url(&quot;#SvgjsMask1009&quot;)" fill="none"><rect width="1440" height="560" x="0" y="0" fill="rgba(24, 106, 59, 1)"></rect><path d="M0,393.331C83.625,401.585,168.433,414.345,246.812,384.047C335.151,349.899,431.043,300.862,466.453,213.022C501.719,125.54,464.849,24.805,426.338,-61.298C393.97,-133.667,328.372,-180.998,267.504,-231.793C215.747,-274.985,159.971,-307.632,98.364,-334.998C27.71,-366.383,-43.193,-421.152,-118.393,-403.209C-193.856,-385.204,-232.278,-303.903,-281.9,-244.267C-330.481,-185.881,-389.231,-132.501,-405.393,-58.287C-422.09,18.384,-405.725,99.034,-372.105,169.935C-338.779,240.216,-284.056,298.196,-217.369,338.232C-151.959,377.502,-75.924,385.837,0,393.331" fill="#104728"></path><path d="M1440 1250.71C1566.87 1276.5059999999999 1691.337 1189.6390000000001 1793.719 1110.397 1890.56 1035.444 1970.636 934.884 2001.248 816.313 2029.618 706.424 1973.9360000000001 597.853 1954.9279999999999 485.964 1936.504 377.51599999999996 1942.513 266.308 1891.274 168.969 1830.952 54.375 1762.754-79.543 1638.335-115.46699999999998 1513.926-151.38800000000003 1394.4279999999999-53.90499999999997 1272.745-9.620000000000005 1159.567 31.57000000000005 1022.2850000000001 39.04200000000003 949.701 135.15300000000002 877.784 230.38099999999997 925.635 365.736 901.08 482.515 874.185 610.425 737.298 737.492 798.796 852.828 861.478 970.385 1054.838 912.9359999999999 1168.039 983.1800000000001 1278.324 1051.614 1312.81 1224.8490000000002 1440 1250.71" fill="#208d4f"></path></g><defs><mask id="SvgjsMask1009"><rect width="1440" height="560" fill="#ffffff"></rect></mask></defs></svg>