<svg xmlns="http://www.w3.org/2000/svg" version="1.1" xmlns:xlink="http://www.w3.org/1999/xlink" xmlns:svgjs="http://svgjs.dev/svgjs" width="1440" height="560" preserveAspectRatio="none" viewBox="0 0 1440 560"><g mask="url(&quot;#SvgjsMask1027&quot;)" fill="none"><rect width="1440" height="560" x="0" y="0" fill="rgba(120, 66, 18, 1)"></rect><path d="M0,606.07C112.056,594.964,163.904,461.734,250.414,389.651C323.79,328.512,430.983,301.816,469.852,214.574C508.651,127.49,457.753,30.082,453.036,-65.137C447.705,-172.74,514.1,-303.033,440.32,-381.54C365.794,-460.842,225.999,-383.546,122.423,-416.935C14.348,-451.775,-61.353,-611.945,-169.779,-578.214C-278.865,-544.277,-261.953,-376.132,-321.712,-278.765C-368.661,-202.268,-448.592,-152.578,-482.112,-69.317C-522.269,30.43,-570.414,142.503,-531.693,242.816C-492.746,343.713,-373.786,381.657,-284.485,442.668C-192.323,505.634,-111.074,617.079,0,606.07" fill="#502c0c"></path><path d="M1440 1247.613C1568.362 1245.888 1686.23 1179.6570000000002 1787.659 1100.967 1883.117 1026.909 1953.87 927.293 1997.9009999999998 814.785 2040.279 706.499 2039.142 590.886 2032.721 474.78 2025.7350000000001 348.46500000000003 2046.925 201.236 1958.94 110.33600000000001 1870.972 19.45399999999995 1718.156 61.613999999999976 1597.154 24.783000000000015 1474.461-12.562999999999988 1371.528-121.548 1244.075-107.25900000000001 1111.16-92.35799999999995 986.616-8.684999999999945 911.091 101.69799999999998 838.367 207.988 865.567 347.303 845.97 474.591 826.129 603.467 749.094 732.5 795.196 854.472 841.819 977.823 973.693 1041.746 1086.284 1110.393 1196.495 1177.5900000000001 1310.931 1249.348 1440 1247.613" fill="#a05818"></path></g><defs><mask id="SvgjsMask1027"><rect width="1440" height="560" fill="#ffffff"></rect></mask></defs></svg>