<svg width="16" height="20" viewBox="0 0 16 20" fill="none" xmlns="http://www.w3.org/2000/svg">
<path id="Vector" fill-rule="evenodd" clip-rule="evenodd" d="M6.00142 7.59224C5.58976 7.59224 5.25627 7.91225 5.25627 8.30672V12.9433C5.25627 13.3377 5.58976 13.6577 6.00142 13.6577C6.41308 13.6577 6.74658 13.3377 6.74658 12.9433V8.30672C6.74658 7.91225 6.41308 7.59224 6.00142 7.59224ZM9.86922 7.59224C9.45752 7.59224 9.12402 7.91225 9.12402 8.30672V12.9433C9.12402 13.3377 9.45752 13.6577 9.86922 13.6577C10.2808 13.6577 10.6143 13.3377 10.6143 12.9433V8.30672C10.6143 7.91225 10.2808 7.59224 9.86922 7.59224ZM12.531 2.10213C12.5553 2.32715 12.5649 2.58365 12.5686 2.87029C12.6533 2.8791 12.736 2.88881 12.8167 2.89949C13.7387 3.02151 14.5137 3.28343 15.1087 3.89686C15.7038 4.51028 15.9202 5.27045 15.9806 6.1611C16.0388 7.0197 15.9567 8.10791 15.8548 9.45888L15.5671 13.2722C15.478 14.4539 15.4058 15.4105 15.2455 16.1614C15.0787 16.9429 14.7984 17.5979 14.2231 18.1112C13.6478 18.6244 12.9463 18.8453 12.1214 18.9485C11.3288 19.0476 10.3287 19.0476 9.09332 19.0476H7.09509C5.89248 19.0476 4.91808 19.0476 4.14378 18.952C3.3374 18.8524 2.65011 18.6394 2.07978 18.1451C1.50947 17.6508 1.2193 17.0165 1.03472 16.2572C0.857467 15.528 0.759297 14.5984 0.638127 13.4509L0.235427 9.63783C0.0892575 8.25403 -0.0283626 7.1405 0.00602745 6.26095C0.0416574 5.34935 0.242488 4.5682 0.840328 3.93387C1.43819 3.29951 2.22841 3.02916 3.17062 2.90329C3.22849 2.89556 3.28741 2.88832 3.34739 2.88154C3.351 2.59036 3.36044 2.3301 3.38508 2.10213C3.42728 1.71179 3.5204 1.33618 3.76319 0.996276C3.92999 0.762762 4.14047 0.560914 4.38397 0.400943C4.73844 0.168085 5.13016 0.0787712 5.53724 0.038295C5.92274 -3.16614e-05 6.39781 -1.64204e-05 6.95428 7.22441e-07H8.96282C9.51932 -1.64204e-05 9.99342 -3.16614e-05 10.3789 0.038295C10.7859 0.0787712 11.1777 0.168085 11.5321 0.400943C11.7756 0.560914 11.9861 0.762762 12.1529 0.996276C12.3957 1.33618 12.4888 1.71179 12.531 2.10213ZM11.0487 2.24948C11.0649 2.39973 11.0729 2.57538 11.0768 2.79173C10.5617 2.78187 9.99602 2.78188 9.37772 2.78189H6.69711C6.01626 2.78188 5.39783 2.78187 4.83921 2.79443C4.84313 2.57684 4.85114 2.40036 4.86745 2.24948C4.89717 1.97459 4.94789 1.86656 4.99276 1.80374C5.05551 1.71589 5.1347 1.63995 5.2263 1.57977C5.29176 1.53677 5.40435 1.48813 5.69095 1.45964C5.99043 1.42987 6.38659 1.42897 6.99112 1.42897H8.92502C9.52952 1.42897 9.92572 1.42987 10.2251 1.45964C10.5117 1.48813 10.6243 1.53677 10.6898 1.57977C10.7814 1.63995 10.8606 1.71589 10.9233 1.80374C10.9682 1.86656 11.0189 1.97459 11.0487 2.24948ZM3.37627 4.31858C4.17044 4.21249 5.23331 4.21085 6.75469 4.21085H9.32102C10.8034 4.21085 11.8379 4.21246 12.6129 4.31503C13.3665 4.41477 13.752 4.59639 14.0175 4.87007C14.283 5.14376 14.4441 5.52566 14.4934 6.25378C14.5442 7.00251 14.4712 7.99215 14.3643 9.41011L14.0845 13.1193C13.9907 14.3627 13.924 15.2258 13.7855 15.8748C13.6512 16.5035 13.4678 16.8332 13.2079 17.065C12.9481 17.2968 12.5921 17.4485 11.9285 17.5315C11.2437 17.6173 10.3411 17.6187 9.04122 17.6187H7.14643C5.88034 17.6187 5.0022 17.6173 4.3342 17.5348C3.6873 17.4549 3.33729 17.3088 3.07918 17.0851C2.82105 16.8614 2.63422 16.542 2.48612 15.9328C2.3332 15.3037 2.24327 14.466 2.11569 13.258L1.72396 9.54878C1.57065 8.09724 1.46525 7.08293 1.49529 6.31449C1.52453 5.56653 1.68006 5.17417 1.94604 4.89195C2.21201 4.60974 2.60333 4.42184 3.37627 4.31858Z" fill="#201F29"/>
</svg>
