<svg width="11" height="11" viewBox="0 0 11 11" fill="none" xmlns="http://www.w3.org/2000/svg">
<path id="Vector" fill-rule="evenodd" clip-rule="evenodd" d="M0.219675 9.05853C-0.073225 9.35143 -0.073225 9.82623 0.219675 10.1191C0.512565 10.412 0.987435 10.412 1.28033 10.1191L5.16944 6.23004L9.05853 10.1191C9.35143 10.412 9.82633 10.412 10.1192 10.1191C10.4121 9.82623 10.4121 9.35143 10.1192 9.05853L6.23014 5.16939L10.1191 1.28033C10.412 0.987435 10.412 0.512565 10.1191 0.219675C9.82623 -0.073225 9.35143 -0.073225 9.05853 0.219675L5.16944 4.10873L1.28038 0.219675C0.987485 -0.073225 0.512615 -0.073225 0.219725 0.219675C-0.0731749 0.512565 -0.0731749 0.987435 0.219725 1.28033L4.10879 5.16939L0.219675 9.05853Z" fill="#201F29"/>
</svg>
