<svg xmlns="http://www.w3.org/2000/svg" version="1.1" xmlns:xlink="http://www.w3.org/1999/xlink" xmlns:svgjs="http://svgjs.dev/svgjs" width="1440" height="560" preserveAspectRatio="none" viewBox="0 0 1440 560"><g mask="url(&quot;#SvgjsMask1019&quot;)" fill="none"><rect width="1440" height="560" x="0" y="0" fill="rgba(227, 131, 6, 1)"></rect><path d="M 0,17 C 57.6,41.8 172.8,131.2 288,141 C 403.2,150.8 460.8,46.2 576,66 C 691.2,85.8 748.8,232.2 864,240 C 979.2,247.8 1036.8,105.8 1152,105 C 1267.2,104.2 1382.4,209.8 1440,236L1440 560L0 560z" fill="rgba(227, 162, 12, 1)"></path><path d="M 0,548 C 96,507 288,346.4 480,343 C 672,339.6 768,543.2 960,531 C 1152,518.8 1344,331.8 1440,282L1440 560L0 560z" fill="rgba(255, 227, 62, 1)"></path></g><defs><mask id="SvgjsMask1019"><rect width="1440" height="560" fill="#ffffff"></rect></mask></defs></svg>