<svg xmlns="http://www.w3.org/2000/svg" version="1.1" xmlns:xlink="http://www.w3.org/1999/xlink" xmlns:svgjs="http://svgjs.dev/svgjs" width="1440" height="560" preserveAspectRatio="none" viewBox="0 0 1440 560"><g mask="url(&quot;#SvgjsMask1019&quot;)" fill="none"><rect width="1440" height="560" x="0" y="0" fill="rgba(82, 120, 83, 1)"></rect><path d="M -436.1203079209772,416 C -340.12,363.8 -148.12,181.2 43.87969207902277,155 C 235.88,128.8 331.88,292 523.8796920790228,285 C 715.88,278 811.88,114 1003.8796920790228,120 C 1195.88,126 1396.66,286.4 1483.8796920790228,315 C 1571.1,343.6 1448.78,273.4 1440,263" stroke="rgba(238, 114, 20, 1)" stroke-width="2"></path><path d="M -260.0845336880037,120 C -164.08,193.4 27.92,481.2 219.91546631199628,487 C 411.92,492.8 507.92,169.8 699.9154663119963,149 C 891.92,128.2 987.92,367.6 1179.9154663119962,383 C 1371.92,398.4 1607.9,211.2 1659.9154663119962,226 C 1711.93,240.8 1483.98,410.8 1440,457" stroke="rgba(249, 232, 217, 1)" stroke-width="2"></path><path d="M -242.40964261248058,503 C -146.41,414.4 45.59,62.8 237.59035738751942,60 C 429.59,57.2 525.59,448 717.5903573875194,489 C 909.59,530 1005.59,266.8 1197.5903573875194,265 C 1389.59,263.2 1629.11,494.2 1677.5903573875194,480 C 1726.07,465.8 1487.52,251.2 1440,194" stroke="rgba(238, 114, 20, 1)" stroke-width="2"></path><path d="M -579.5027052874831,464 C -483.5,395.2 -291.5,146.4 -99.50270528748308,120 C 92.5,93.6 188.5,301.4 380.4972947125169,332 C 572.5,362.6 668.5,272.4 860.4972947125169,273 C 1052.5,273.6 1224.6,366.8 1340.497294712517,335 C 1456.4,303.2 1420.1,158.2 1440,114" stroke="rgba(249, 232, 217, 1)" stroke-width="2"></path></g><defs><mask id="SvgjsMask1019"><rect width="1440" height="560" fill="#ffffff"></rect></mask></defs></svg>